<?xml version="1.0" encoding="UTF-8"?>
<svg version="1.1" xmlns="http://www.w3.org/2000/svg" width="500" height="500">
<path d="M0 0 C1.47533203 0.02513672 1.47533203 0.02513672 2.98046875 0.05078125 C23.42737965 1.13344673 43.85996355 12.61013958 58 27 C58 27.66 58 28.32 58 29 C58.66 29 59.32 29 60 29 C60 29.66 60 30.32 60 31 C60.66 31 61.32 31 62 31 C74.73273562 46.66496312 83.25651085 64.63486237 84 85 C84.03996094 85.70898438 84.07992187 86.41796875 84.12109375 87.1484375 C84.49859125 99.09512303 82.02237549 110.81583399 78 122 C77.64035156 123.00804687 77.28070313 124.01609375 76.91015625 125.0546875 C72.88131196 135.49983935 66.72955424 144.90237175 59 153 C58.34 153 57.68 153 57 153 C57 153.66 57 154.32 57 155 C56.34 155 55.68 155 55 155 C55 155.66 55 156.32 55 157 C45.51095278 165.26085494 34.66320969 171.80485698 22.9375 176.3125 C22.31327148 176.55508545 21.68904297 176.7976709 21.04589844 177.04760742 C2.82230799 183.69465969 -19.79823642 183.47039436 -38 177 C-39.19496094 176.57589844 -40.38992187 176.15179688 -41.62109375 175.71484375 C-54.54346842 170.63364714 -65.05434386 162.57933363 -75 153 C-75.75152344 152.29488281 -76.50304687 151.58976563 -77.27734375 150.86328125 C-79 149 -79 149 -79 147 C-79.66 147 -80.32 147 -81 147 C-91.01238723 133.29599518 -97.1558356 118.76783488 -100 102 C-100.13148438 101.22914063 -100.26296875 100.45828125 -100.3984375 99.6640625 C-103.51634147 78.34434078 -97.341632 56.24242302 -84.7734375 38.93359375 C-83.42830227 37.25339757 -82.06155642 35.59003023 -80.6640625 33.953125 C-78.84749768 31.89840839 -78.84749768 31.89840839 -77 29 C-76.34 29 -75.68 29 -75 29 C-75 28.34 -75 27.68 -75 27 C-74.34 27 -73.68 27 -73 27 C-73 26.34 -73 25.68 -73 25 C-72.34 25 -71.68 25 -71 25 C-71 24.34 -71 23.68 -71 23 C-50.05949734 5.08918709 -27.11859363 -0.5701411 0 0 Z " fill="#FCE0DC" transform="translate(259,165)"/>
<path d="M0 0 C1.47533203 0.02513672 1.47533203 0.02513672 2.98046875 0.05078125 C23.42737965 1.13344673 43.85996355 12.61013958 58 27 C58 27.66 58 28.32 58 29 C58.66 29 59.32 29 60 29 C60 29.66 60 30.32 60 31 C60.66 31 61.32 31 62 31 C74.73273562 46.66496312 83.25651085 64.63486237 84 85 C84.03996094 85.70898438 84.07992187 86.41796875 84.12109375 87.1484375 C84.49859125 99.09512303 82.02237549 110.81583399 78 122 C77.64035156 123.00804687 77.28070313 124.01609375 76.91015625 125.0546875 C72.88131196 135.49983935 66.72955424 144.90237175 59 153 C58.34 153 57.68 153 57 153 C57 153.66 57 154.32 57 155 C56.34 155 55.68 155 55 155 C55 155.66 55 156.32 55 157 C45.51095278 165.26085494 34.66320969 171.80485698 22.9375 176.3125 C22.31327148 176.55508545 21.68904297 176.7976709 21.04589844 177.04760742 C2.82230799 183.69465969 -19.79823642 183.47039436 -38 177 C-39.19496094 176.57589844 -40.38992187 176.15179688 -41.62109375 175.71484375 C-54.54346842 170.63364714 -65.05434386 162.57933363 -75 153 C-75.75152344 152.29488281 -76.50304687 151.58976563 -77.27734375 150.86328125 C-79 149 -79 149 -79 147 C-79.66 147 -80.32 147 -81 147 C-80.42655063 144.13275314 -80.1385485 143.1385485 -78 141 C-76.94425781 142.23363281 -76.94425781 142.23363281 -75.8671875 143.4921875 C-61.0517515 160.40738895 -41.18304343 173.51918837 -18.17822266 175.20703125 C6.27011805 176.30883962 28.96577484 171.57046413 47.82299805 154.92114258 C50.27820087 152.67295387 52.64402609 150.35249902 55 148 C55.66773438 147.34386719 56.33546875 146.68773437 57.0234375 146.01171875 C71.58188179 130.62983305 78.52529898 108.18107522 78.28540039 87.40283203 C78.12931484 81.74609742 77.55431226 76.45775555 76 71 C75.5978125 69.46472656 75.5978125 69.46472656 75.1875 67.8984375 C73.0488941 60.28856485 70.0845384 53.74879366 66 47 C65.45214844 46.06027344 64.90429688 45.12054688 64.33984375 44.15234375 C52.86466163 25.14902393 33.82899897 14.32939315 13 8 C6.57379099 6.7270441 0.16794816 6.74135677 -6.35546875 6.70483398 C-7.77093566 6.69339294 -9.18636217 6.6730679 -10.6015625 6.64331055 C-32.54904304 6.18350261 -51.59512846 13.90722749 -67.640625 28.8515625 C-70 31 -70 31 -72.58984375 32.9765625 C-83.29868634 41.96713051 -90.51144417 60.57002515 -93 74 C-93.18175781 74.7425 -93.36351562 75.485 -93.55078125 76.25 C-97.30563484 99.23623417 -90.51952798 120.3884546 -79 140 C-80.6875 140.8125 -80.6875 140.8125 -83 141 C-96.42653711 129.45750922 -99.90062994 108.20019655 -101.1875 91.578125 C-101.82530459 70.37112238 -94.34422623 49.97690244 -80.6640625 33.953125 C-78.84749768 31.89840839 -78.84749768 31.89840839 -77 29 C-76.34 29 -75.68 29 -75 29 C-75 28.34 -75 27.68 -75 27 C-74.34 27 -73.68 27 -73 27 C-73 26.34 -73 25.68 -73 25 C-72.34 25 -71.68 25 -71 25 C-71 24.34 -71 23.68 -71 23 C-50.05949734 5.08918709 -27.11859363 -0.5701411 0 0 Z " fill="#63374F" transform="translate(259,165)"/>
<path d="M0 0 C19.74268524 -0.87242635 37.84868309 5.29963142 53 18 C53.50015625 18.41797852 54.0003125 18.83595703 54.515625 19.26660156 C61.44923081 25.13184855 67.2024109 31.23012562 72 39 C72.53238281 39.81210938 73.06476563 40.62421875 73.61328125 41.4609375 C77.36771939 47.36742331 79.87408046 53.34494753 82 60 C82.5878125 61.8253125 82.5878125 61.8253125 83.1875 63.6875 C88.79690335 86.55660595 83.38450146 109.00867797 72.2265625 129.2109375 C60.37894285 148.25711085 40.38556944 163.17792385 18.52734375 168.52734375 C-8.10773386 173.5085561 -31.64837744 168.67656006 -53.9375 153.5625 C-60.8881519 148.57184559 -66.97576542 142.94342978 -72 136 C-73.32 136.99 -74.64 137.98 -76 139 C-76.99 137.68 -77.98 136.36 -79 135 C-78.505 134.01 -78.505 134.01 -78 133 C-76.68 133.33 -75.36 133.66 -74 134 C-74.53109375 133.03320312 -75.0621875 132.06640625 -75.609375 131.0703125 C-86.21619559 111.60984407 -89.61152544 95.10551231 -89 73 C-88.67 73 -88.34 73 -88 73 C-87.97421875 73.59683594 -87.9484375 74.19367188 -87.921875 74.80859375 C-86.6560641 94.16974676 -80.13651635 114.0151322 -69 130 C-68.34 130.33 -67.68 130.66 -67 131 C-67 131.66 -67 132.32 -67 133 C-66.34 133 -65.68 133 -65 133 C-63.64613064 134.65002828 -62.31321858 136.3174387 -61 138 C-60.34 138.33 -59.68 138.66 -59 139 C-59 139.66 -59 140.32 -59 141 C-58.01 141.33 -57.02 141.66 -56 142 C-54.98980415 142.98969912 -53.99176028 143.99182762 -53 145 C-36.07422956 157.66121795 -16.01824559 164.35547078 5.12890625 161.73632812 C16.05313248 160.14032048 25.49649872 156.93117345 35.3125 152 C36.01439453 151.65710938 36.71628906 151.31421875 37.43945312 150.9609375 C38.45362305 150.45433594 38.45362305 150.45433594 39.48828125 149.9375 C40.09196533 149.63714844 40.69564941 149.33679688 41.31762695 149.02734375 C43.09305305 148.03672136 43.09305305 148.03672136 44.59448242 146.37890625 C46 145 46 145 48 145 C48 144.34 48 143.68 48 143 C49.1133344 141.8518739 50.23424426 140.71053452 51.3828125 139.59765625 C66.38909708 124.77260699 75.16181432 107.44474577 75.62329102 86.16772461 C75.63339972 64.47300363 70.7772789 47.24671493 56.94140625 30.51171875 C55 28 55 28 55 26 C54.01 25.67 53.02 25.34 52 25 C52 24.34 52 23.68 52 23 C51.44570313 22.74347656 50.89140625 22.48695313 50.3203125 22.22265625 C47.66692407 20.82449029 45.31438073 19.18147518 42.875 17.4375 C39.54908252 15.03268334 39.54908252 15.03268334 36 13 C36 12.34 36 11.68 36 11 C35.28714844 10.87496094 34.57429688 10.74992188 33.83984375 10.62109375 C30.95170639 9.98943785 28.32820183 9.10209005 25.5625 8.0625 C19.29304843 5.7170295 13.1910576 3.73776667 6.625 2.375 C5.37976563 2.11460937 4.13453125 1.85421875 2.8515625 1.5859375 C1.91054687 1.39257812 0.96953125 1.19921875 0 1 C0 0.67 0 0.34 0 0 Z " fill="#EAB2B8" transform="translate(253,171)"/>
<path d="M0 0 C4.6320518 0.7389941 7.75862119 3.45800927 11.4375 6.1875 C12.09298828 6.65736328 12.74847656 7.12722656 13.42382812 7.61132812 C23.0998781 14.72521442 23.0998781 14.72521442 24.59375 20.16015625 C24.37644185 24.56970081 23.65453455 27.4606206 21 31 C16.93774452 30.42176904 14.15237654 29.10882263 10.6875 26.9375 C9.80449219 26.38964844 8.92148437 25.84179688 8.01171875 25.27734375 C7.34785156 24.85582031 6.68398438 24.43429688 6 24 C6.01571045 25.24612061 6.0314209 26.49224121 6.04760742 27.77612305 C6.10198073 32.40724198 6.13637711 37.03833278 6.16479492 41.66967773 C6.17986465 43.67265572 6.2003241 45.6756008 6.22631836 47.6784668 C6.26278127 50.56046681 6.27974461 53.44202984 6.29296875 56.32421875 C6.30845261 57.21711105 6.32393646 58.11000336 6.33988953 59.029953 C6.34119114 63.85797942 6.16001555 67.09265504 3 71 C-0.92640382 74.37853352 -3.95381376 75.66339696 -9.0390625 75.390625 C-13.05769165 74.59010127 -15.88357057 72.42091018 -18.375 69.25 C-19.3523507 65.73153747 -19.78133965 62.5623791 -19 59 C-16.92499561 55.67744696 -14.53431872 52.76715936 -11 51 C-9.29297265 50.93003986 -7.58331997 50.91559846 -5.875 50.9375 C-4.96492188 50.94652344 -4.05484375 50.95554687 -3.1171875 50.96484375 C-2.41851562 50.97644531 -1.71984375 50.98804688 -1 51 C-1.00222061 50.3758168 -1.00444122 49.75163361 -1.00672913 49.10853577 C-1.0287808 42.63657196 -1.0439061 36.16461875 -1.05493164 29.69262695 C-1.05997349 27.27432828 -1.06680678 24.85603267 -1.07543945 22.43774414 C-1.08751157 18.97020717 -1.09322963 15.50271034 -1.09765625 12.03515625 C-1.10281754 10.94662857 -1.10797882 9.85810089 -1.11329651 8.73658752 C-1.11340981 7.23514442 -1.11340981 7.23514442 -1.11352539 5.70336914 C-1.115746 4.81734512 -1.11796661 3.93132111 -1.12025452 3.01844788 C-1 1 -1 1 0 0 Z " fill="#DB4B49" transform="translate(263,211)"/>
<path d="M0 0 C1.46341463 7.07317073 1.46341463 7.07317073 -0.75 11.5 C-1.86375 12.7375 -1.86375 12.7375 -3 14 C-3.99 14 -4.98 14 -6 14 C-6 14.66 -6 15.32 -6 16 C-7.42578125 17.1484375 -7.42578125 17.1484375 -9.3125 18.375 C-12.16828069 20.31531874 -14.00255551 22.16152625 -16 25 C-16.66 25 -17.32 25 -18 25 C-18.66 26.65 -19.32 28.3 -20 30 C-20.66 30 -21.32 30 -22 30 C-22.226875 30.61875 -22.45375 31.2375 -22.6875 31.875 C-24 34 -24 34 -26.5625 35 C-27.7690625 35.495 -27.7690625 35.495 -29 36 C-29.3721042 37.32303717 -29.70630173 38.65737935 -30 40 C-31.32467746 40.6837045 -32.65863633 41.34964186 -34 42 C-35.26804566 44.0335948 -35.26804566 44.0335948 -36 46 C-36.66 46 -37.32 46 -38 46 C-38.33 46.99 -38.66 47.98 -39 49 C-39.99 49 -40.98 49 -42 49 C-42.33 49.99 -42.66 50.98 -43 52 C-45.79870027 53.39935013 -47.90498792 53.25265405 -51 53 C-52.6796875 51.77734375 -52.6796875 51.77734375 -54 50 C-54.29296875 47.73828125 -54.29296875 47.73828125 -54.1875 45.3125 C-54.16042969 44.50425781 -54.13335937 43.69601563 -54.10546875 42.86328125 C-54.07066406 42.24839844 -54.03585938 41.63351563 -54 41 C-53.34 41 -52.68 41 -52 41 C-51.8453125 39.9171875 -51.8453125 39.9171875 -51.6875 38.8125 C-50.92807244 35.70575088 -49.73748869 33.67305952 -48 31 C-47.484375 30.071875 -46.96875 29.14375 -46.4375 28.1875 C-45.963125 27.465625 -45.48875 26.74375 -45 26 C-44.34 26 -43.68 26 -43 26 C-43 25.34 -43 24.68 -43 24 C-42.34 24 -41.68 24 -41 24 C-40.773125 23.443125 -40.54625 22.88625 -40.3125 22.3125 C-37.23830382 16.89605912 -30.94195637 10.98065212 -25 9 C-24.34 8.01 -23.68 7.02 -23 6 C-16.33002783 0.99752087 -8.13820944 -0.45212275 0 0 Z " fill="#FDFBFA" transform="translate(232,178)"/>
<path d="M0 0 C3.15930721 2.47621376 5.51421441 5.21592881 7.3125 8.8125 C7.97612382 14.34269848 6.87339195 17.6189038 3.796875 22.078125 C0.67407588 25.72686924 -2.48003209 26.65882227 -7.125 27.25 C-11.43511059 26.72068817 -14.41355458 25.69729428 -17.6875 22.8125 C-20.19126751 18.45109853 -21.41782153 14.82041904 -20.6875 9.8125 C-18.53454702 4.81764909 -16.45740294 1.90630082 -11.55078125 -0.53125 C-7.37684459 -2.00131574 -3.99852057 -1.76678816 0 0 Z " fill="#E14945" transform="translate(236.6875,273.1875)"/>
<path d="M0 0 C4.6320518 0.7389941 7.75862119 3.45800927 11.4375 6.1875 C12.09298828 6.65736328 12.74847656 7.12722656 13.42382812 7.61132812 C23.0998781 14.72521442 23.0998781 14.72521442 24.59375 20.16015625 C24.37644185 24.56970081 23.65453455 27.4606206 21 31 C16.93774452 30.42176904 14.15237654 29.10882263 10.6875 26.9375 C9.80449219 26.38964844 8.92148437 25.84179688 8.01171875 25.27734375 C7.34785156 24.85582031 6.68398438 24.43429688 6 24 C6.01571045 25.24612061 6.0314209 26.49224121 6.04760742 27.77612305 C6.10198073 32.40724198 6.13637711 37.03833278 6.16479492 41.66967773 C6.17986465 43.67265572 6.2003241 45.6756008 6.22631836 47.6784668 C6.26278127 50.56046681 6.27974461 53.44202984 6.29296875 56.32421875 C6.30845261 57.21711105 6.32393646 58.11000336 6.33988953 59.029953 C6.34119114 63.85797942 6.16001555 67.09265504 3 71 C-0.92640382 74.37853352 -3.95381376 75.66339696 -9.0390625 75.390625 C-13.05769165 74.59010127 -15.88357057 72.42091018 -18.375 69.25 C-19.3523507 65.73153747 -19.78133965 62.5623791 -19 59 C-16.92499561 55.67744696 -14.53431872 52.76715936 -11 51 C-9.29297265 50.93003986 -7.58331997 50.91559846 -5.875 50.9375 C-4.96492188 50.94652344 -4.05484375 50.95554687 -3.1171875 50.96484375 C-2.41851562 50.97644531 -1.71984375 50.98804688 -1 51 C-1.00222061 50.3758168 -1.00444122 49.75163361 -1.00672913 49.10853577 C-1.0287808 42.63657196 -1.0439061 36.16461875 -1.05493164 29.69262695 C-1.05997349 27.27432828 -1.06680678 24.85603267 -1.07543945 22.43774414 C-1.08751157 18.97020717 -1.09322963 15.50271034 -1.09765625 12.03515625 C-1.10281754 10.94662857 -1.10797882 9.85810089 -1.11329651 8.73658752 C-1.11340981 7.23514442 -1.11340981 7.23514442 -1.11352539 5.70336914 C-1.115746 4.81734512 -1.11796661 3.93132111 -1.12025452 3.01844788 C-1 1 -1 1 0 0 Z M1 3 C1 19.83 1 36.66 1 54 C-2.3 53.67 -5.6 53.34 -9 53 C-12.20361781 55.07954138 -14.28650829 56.57301657 -16 60 C-16.68590324 65.72614378 -16.68590324 65.72614378 -14 70.5 C-10.15879465 72.42060267 -7.21586368 72.72393619 -3 72 C0.74547604 70.27032287 0.74547604 70.27032287 3 67 C3.08963847 65.51899189 3.11757925 64.03400576 3.11352539 62.55029297 C3.11341209 61.16908768 3.11341209 61.16908768 3.11329651 59.75997925 C3.10813522 58.76410797 3.10297394 57.76823669 3.09765625 56.7421875 C3.0962413 55.72399933 3.09482635 54.70581116 3.09336853 53.6567688 C3.087759 50.39614965 3.07520488 47.13559849 3.0625 43.875 C3.05748623 41.66796974 3.05292311 39.46093841 3.04882812 37.25390625 C3.03778648 31.83591419 3.02103905 26.41796195 3 21 C8.09514845 22.3866333 11.34596223 23.70361955 15.32421875 27.07421875 C17.01109841 28.23090365 17.01109841 28.23090365 19.20703125 27.64453125 C19.79871094 27.43183594 20.39039063 27.21914062 21 27 C21.10933628 25.60596244 21.18619553 24.20936224 21.25 22.8125 C21.29640625 22.03519531 21.3428125 21.25789063 21.390625 20.45703125 C20.74562385 16.399974 18.47471857 14.14195404 15.28076172 11.66870117 C13.31923857 10.29333728 11.32818195 8.98206262 9.3125 7.6875 C8.62349609 7.23310547 7.93449219 6.77871094 7.22460938 6.31054688 C4.32721511 4.03162791 4.32721511 4.03162791 1 3 Z " fill="#651D2D" transform="translate(263,211)"/>
<path d="M0 0 C0.639375 0.639375 1.27875 1.27875 1.9375 1.9375 C2.40285156 2.39640625 2.86820313 2.8553125 3.34765625 3.328125 C4.52730832 4.52172094 5.67815639 5.74406792 6.80859375 6.984375 C23.98327713 25.29537958 46.79606827 33.86323687 71.5 34.75 C75.33316179 34.86072971 79.16561741 34.94679565 83 35 C83.33 35.66 83.66 36.32 84 37 C83.01 37 82.02 37 81 37 C81 37.66 81 38.32 81 39 C53.40141579 40.24266277 29.56294887 35.16258704 8.40820312 16.60351562 C5.45217222 13.87574966 2.57820546 11.0890941 0 8 C0 7.34 0 6.68 0 6 C-0.66 6 -1.32 6 -2 6 C-1.49396008 3.83125748 -1.00016187 2.00032373 0 0 Z " fill="#4B1732" transform="translate(180,306)"/>
<path d="M0 0 C0.495 0.99 0.495 0.99 1 2 C-0.28419041 3.67243402 -1.57757185 5.33781447 -2.875 7 C-3.59429687 7.928125 -4.31359375 8.85625 -5.0546875 9.8125 C-5.69664062 10.534375 -6.33859375 11.25625 -7 12 C-7.66 12 -8.32 12 -9 12 C-9 12.66 -9 13.32 -9 14 C-9.66 14 -10.32 14 -11 14 C-11 14.66 -11 15.32 -11 16 C-20.48904722 24.26085494 -31.33679031 30.80485698 -43.0625 35.3125 C-43.68672852 35.55508545 -44.31095703 35.7976709 -44.95410156 36.04760742 C-54.63832691 39.57992737 -64.44436431 40.38718152 -74.6875 40.375 C-75.81784668 40.37628906 -76.94819336 40.37757813 -78.11279297 40.37890625 C-87.25236925 40.26415626 -95.34229802 38.92949433 -104 36 C-100.42713474 34.74489511 -98.27126134 35.31781465 -94.6875 36.375 C-84.65321986 38.89507724 -74.29526351 38.76118894 -64 39 C-64 38.34 -64 37.68 -64 37 C-63.34 36.67 -62.68 36.34 -62 36 C-62.33 35.34 -62.66 34.68 -63 34 C-61.71029297 33.76216797 -61.71029297 33.76216797 -60.39453125 33.51953125 C-41.9080048 29.87060945 -27.02883136 22.43413951 -13.4609375 9.3203125 C-11 7 -11 7 -8 5 C-8 5.66 -8 6.32 -8 7 C-7.01 7.495 -7.01 7.495 -6 8 C-5.67 7.01 -5.34 6.02 -5 5 C-4.34 4.01 -3.68 3.02 -3 2 C-2.505 2.495 -2.505 2.495 -2 3 C-1.34 2.01 -0.68 1.02 0 0 Z " fill="#4F1C36" transform="translate(325,306)"/>
<path d="M0 0 C0.66 0 1.32 0 2 0 C2.01458252 0.64324219 2.02916504 1.28648437 2.04418945 1.94921875 C2.64284785 25.67555294 5.89346026 44.38909007 18 65 C16.3125 65.8125 16.3125 65.8125 14 66 C10.05379832 62.60753952 7.73093296 59.14007783 5.4375 54.5 C4.87933594 53.3965625 4.32117188 52.293125 3.74609375 51.15625 C-1.07159516 40.21165683 -2.59906847 30.3661976 -2.375 18.4375 C-2.3720763 17.08528899 -2.37076756 15.7330735 -2.37109375 14.38085938 C-2.27446367 3.70323523 -2.27446367 3.70323523 0 0 Z " fill="#663552" transform="translate(162,240)"/>
<path d="M0 0 C2.21244192 3.31866288 2.24755216 4.35722871 2.23046875 8.21875 C2.22853516 9.23324219 2.22660156 10.24773437 2.22460938 11.29296875 C2.20624023 12.88044922 2.20624023 12.88044922 2.1875 14.5 C2.18685547 15.55832031 2.18621094 16.61664063 2.18554688 17.70703125 C2.14053915 25.57838255 2.14053915 25.57838255 1 29 C1.08252772 30.3972797 1.19010411 31.79314688 1.3125 33.1875 C1.42335546 44.00382575 -4.55110888 56.55145271 -11 65 C-12.90571295 66.86861878 -14.86090146 68.38379222 -17 70 C-18.8126505 72.16220617 -18.8126505 72.16220617 -20 74 C-20.99 73.67 -21.98 73.34 -23 73 C-20.69584786 68.85252614 -18.25850554 64.88483867 -15.625 60.9375 C-4.7620544 43.84057277 -1.45680798 25.953524 -1.1418457 6.02026367 C-0.9939894 3.91439297 -0.57035981 2.02886352 0 0 Z " fill="#63394E" transform="translate(339,240)"/>
<path d="M0 0 C0 1.32 0 2.64 0 4 C-0.7425 4.28875 -1.485 4.5775 -2.25 4.875 C-7.42137787 6.88661412 -7.42137787 6.88661412 -11 11 C-14.06241866 12.87147807 -17.02288438 14.57746352 -20.3125 16 C-22.53211311 17.31532629 -22.96961113 18.66445189 -24 21 C-25.5 23.25 -25.5 23.25 -27 25 C-27.66 25 -28.32 25 -29 25 C-29 25.66 -29 26.32 -29 27 C-29.66 27 -30.32 27 -31 27 C-31.226875 27.680625 -31.45375 28.36125 -31.6875 29.0625 C-33.35572357 32.79614324 -35.55729608 35.72163421 -38 39 C-39.65 38.34 -41.3 37.68 -43 37 C-38.30763927 26.44759431 -31.88449423 19.25509857 -23 12 C-22.06027344 11.22849609 -22.06027344 11.22849609 -21.1015625 10.44140625 C-7.8125 0 -7.8125 0 0 0 Z " fill="#F7DCDB" transform="translate(218,177)"/>
<path d="M0 0 C1.32 0 2.64 0 4 0 C3.67 1.65 3.34 3.3 3 5 C6.465 4.505 6.465 4.505 10 4 C10 4.66 10 5.32 10 6 C11.134375 6.28875 12.26875 6.5775 13.4375 6.875 C14.613125 7.24625 15.78875 7.6175 17 8 C18.20272819 10.40545638 18.10071472 11.94996953 18.0625 14.625 C18.05347656 15.44226563 18.04445313 16.25953125 18.03515625 17.1015625 C18.02355469 17.72804687 18.01195312 18.35453125 18 19 C16.28125 19.6796875 16.28125 19.6796875 14 20 C11.78125 18.8203125 11.78125 18.8203125 9.5 17.125 C6.65893652 15.03312107 4.49837739 13.6201669 1 13 C1 12.34 1 11.68 1 11 C0.34 11 -0.32 11 -1 11 C-1.02688151 9.35425434 -1.04634123 7.70838587 -1.0625 6.0625 C-1.07410156 5.14597656 -1.08570313 4.22945312 -1.09765625 3.28515625 C-1 1 -1 1 0 0 Z " fill="#DA4B4A" transform="translate(266,219)"/>
<path d="M0 0 C9.36920795 8.58165134 12.18182376 24.42387335 12.91015625 36.5390625 C12.93980469 37.35117188 12.96945312 38.16328125 13 39 C13.03996094 39.70898438 13.07992188 40.41796875 13.12109375 41.1484375 C13.35305385 48.48929237 12.06863146 55.75811357 11 63 C10.67 63 10.34 63 10 63 C9.61936779 60.6739143 9.28730055 58.33944736 9 56 C9.495 55.505 9.495 55.505 10 55 C10.08713831 53.29227642 10.10700007 51.58101351 10.09765625 49.87109375 C10.09443359 48.83662109 10.09121094 47.80214844 10.08789062 46.73632812 C10.07951172 45.64771484 10.07113281 44.55910156 10.0625 43.4375 C10.05798828 42.34501953 10.05347656 41.25253906 10.04882812 40.12695312 C10.03699826 37.41791505 10.02051543 34.70898401 10 32 C9.01 32.99 8.02 33.98 7 35 C6.90203125 34.42894531 6.8040625 33.85789063 6.703125 33.26953125 C5.1547166 24.87342021 2.69430645 16.794772 -0.1484375 8.75 C-1.04043333 5.86942632 -0.98917727 4.76969636 0 2 C0 1.34 0 0.68 0 0 Z " fill="#5F2D48" transform="translate(330,211)"/>
<path d="M0 0 C2.69563611 2.11279587 4.51346835 3.88074472 6.3125 6.8125 C6.5625 10.625 6.5625 10.625 6.3125 13.8125 C5.3225 14.3075 5.3225 14.3075 4.3125 14.8125 C4.065 13.575 3.8175 12.3375 3.5625 11.0625 C2.57095937 7.25822166 1.79464702 4.9553597 -1.6875 2.8125 C-5.52942304 2.04411539 -8.94991316 2.10826419 -12.60546875 3.58984375 C-15.23408606 5.34433654 -16.55042344 7.15474505 -17.19140625 10.23046875 C-17.38270664 14.40822232 -17.32032319 16.94764164 -14.8125 20.375 C-10.92823931 23.00258811 -8.40478171 23.13231571 -3.6875 22.8125 C-0.46159655 21.27286426 1.92003646 19.45680181 4.3125 16.8125 C4.6425 17.8025 4.9725 18.7925 5.3125 19.8125 C1.26519483 24.08465546 -1.10792864 26.52047305 -7 27.1875 C-11.40543288 26.73948988 -14.35260451 25.75099964 -17.6875 22.8125 C-20.19126751 18.45109853 -21.41782153 14.82041904 -20.6875 9.8125 C-18.53454702 4.81764909 -16.45740294 1.90630082 -11.55078125 -0.53125 C-7.37684459 -2.00131574 -3.99852057 -1.76678816 0 0 Z " fill="#6B303F" transform="translate(236.6875,273.1875)"/>
<path d="M0 0 C-3.47153263 2.97433103 -7.32912508 4.49354304 -11.5625 6.0625 C-12.54186523 6.44631836 -12.54186523 6.44631836 -13.54101562 6.83789062 C-23.37509336 10.52685518 -33.24840633 11.38741456 -43.6875 11.375 C-44.81784668 11.37628906 -45.94819336 11.37757813 -47.11279297 11.37890625 C-56.25236925 11.26415626 -64.34229802 9.92949433 -73 7 C-69.42713474 5.74489511 -67.27126134 6.31781465 -63.6875 7.375 C-53.65321986 9.89507724 -43.29526351 9.76118894 -33 10 C-33 9.34 -33 8.68 -33 8 C-32.34 7.67 -31.68 7.34 -31 7 C-31.495 6.01 -31.495 6.01 -32 5 C-31.10539062 4.82984375 -30.21078125 4.6596875 -29.2890625 4.484375 C-23.46845704 3.31777177 -18.0328775 2.18019354 -12.625 -0.3125 C-7.72916219 -2.46050831 -4.9484415 -1.83275611 0 0 Z " fill="#8D647B" transform="translate(294,335)"/>
<path d="M0 0 C0.639375 0.639375 1.27875 1.27875 1.9375 1.9375 C2.39898437 2.39382813 2.86046875 2.85015625 3.3359375 3.3203125 C4.54925605 4.54502371 5.73896566 5.79325701 6.9140625 7.0546875 C12.71911592 13.15527091 18.85588304 17.56363634 26 22 C25.67 22.99 25.34 23.98 25 25 C25.33 25.99 25.66 26.98 26 28 C15.99127857 24.51155877 6.73396329 16.04334504 0 8 C0 7.34 0 6.68 0 6 C-0.66 6 -1.32 6 -2 6 C-1.49396008 3.83125748 -1.00016187 2.00032373 0 0 Z " fill="#4B1933" transform="translate(180,306)"/>
<path d="M0 0 C17.83753691 -0.18820379 33.86312373 0.44370282 50 9 C47 10 47 10 44.625 8.9375 C42.02478162 7.67067066 42.02478162 7.67067066 39.66015625 9.0234375 C36.35335889 10.2373866 35.13204461 9.75031612 31.8125 8.6875 C20.83515914 5.80945008 9.28160881 6.22863858 -2 6 C-2 5.67 -2 5.34 -2 5 C6.58 5 15.16 5 24 5 C24 4.01 24 3.02 24 2 C22.95199219 2.12568359 22.95199219 2.12568359 21.8828125 2.25390625 C20.97273438 2.35574219 20.06265625 2.45757812 19.125 2.5625 C18.22007812 2.66691406 17.31515625 2.77132812 16.3828125 2.87890625 C14 3 14 3 12 2 C9.9625237 1.77141886 7.91959697 1.58975722 5.875 1.4375 C4.23144531 1.31181641 4.23144531 1.31181641 2.5546875 1.18359375 C1.71164063 1.12300781 0.86859375 1.06242188 0 1 C0 0.67 0 0.34 0 0 Z M9 2 C9.99 2.33 10.98 2.66 12 3 C11.01 3 10.02 3 9 3 C9 2.67 9 2.34 9 2 Z " fill="#8B667C" transform="translate(242,165)"/>
<path d="M0 0 C0.66 0 1.32 0 2 0 C2 0.66 2 1.32 2 2 C2.99 2 3.98 2 5 2 C4.81824219 2.55945313 4.63648438 3.11890625 4.44921875 3.6953125 C2.14822508 11.03489231 0.53065243 18.46615047 -1 26 C-1.33 24.68 -1.66 23.36 -2 22 C-2.66 22.33 -3.32 22.66 -4 23 C-4.99455909 25.98367726 -5.19559632 28.2004192 -5.31640625 31.32421875 C-5.37924805 32.86625977 -5.37924805 32.86625977 -5.44335938 34.43945312 C-5.48267578 35.51130859 -5.52199219 36.58316406 -5.5625 37.6875 C-5.60568359 38.77095703 -5.64886719 39.85441406 -5.69335938 40.97070312 C-5.79946838 43.64700791 -5.90152361 46.32340526 -6 49 C-6.33 49 -6.66 49 -7 49 C-9.37195882 32.69278314 -7.87894707 14.73785189 0 0 Z " fill="#481C34" transform="translate(166,218)"/>
<path d="M0 0 C0.83112305 0.00410889 1.66224609 0.00821777 2.51855469 0.01245117 C3.4325 0.01438477 4.34644531 0.01631836 5.28808594 0.01831055 C6.24585938 0.03055664 7.20363281 0.04280273 8.19042969 0.05541992 C9.13273437 0.05606445 10.07503906 0.05670898 11.04589844 0.05737305 C15.79632868 0.08735472 20.26265355 0.33615101 24.94042969 1.24291992 C26.94008684 1.27995061 28.94099634 1.29052548 30.94042969 1.24291992 C30.94042969 2.23291992 30.94042969 3.22291992 30.94042969 4.24291992 C29.84541138 4.28050415 29.84541138 4.28050415 28.72827148 4.31884766 C25.36137245 4.43621407 21.99465923 4.55829167 18.62792969 4.68041992 C16.90606445 4.73939453 16.90606445 4.73939453 15.14941406 4.79956055 C8.75892602 5.0349043 2.49309143 5.43703606 -3.84155273 6.33691406 C-6.05957031 6.24291992 -6.05957031 6.24291992 -7.86157227 4.76025391 C-8.4545813 4.00917358 -8.4545813 4.00917358 -9.05957031 3.24291992 C-8.27582031 3.11916992 -7.49207031 2.99541992 -6.68457031 2.86791992 C-3.74431169 2.16785835 -2.89210987 0.34111538 0 0 Z M15.94042969 1.24291992 C16.60042969 1.90291992 17.26042969 2.56291992 17.94042969 3.24291992 C18.27042969 2.58291992 18.60042969 1.92291992 18.94042969 1.24291992 C17.95042969 1.24291992 16.96042969 1.24291992 15.94042969 1.24291992 Z " fill="#5B2C47" transform="translate(235.0595703125,165.757080078125)"/>
<path d="M0 0 C10.125 5.625 10.125 5.625 13.5625 8.3125 C14.22378906 8.82425781 14.88507813 9.33601562 15.56640625 9.86328125 C16.03949219 10.23839844 16.51257813 10.61351562 17 11 C16.01 11.33 15.02 11.66 14 12 C13.34 11.67 12.68 11.34 12 11 C12 10.34 12 9.68 12 9 C9.69 9.33 7.38 9.66 5 10 C5.33 8.35 5.66 6.7 6 5 C4.68 5.33 3.36 5.66 2 6 C1.67 9.3 1.34 12.6 1 16 C1.66 16 2.32 16 3 16 C2.67 27.22 2.34 38.44 2 50 C1.01 50.495 1.01 50.495 0 51 C0 34.17 0 17.34 0 0 Z " fill="#CB505C" transform="translate(264,214)"/>
<path d="M0 0 C0.763125 0.639375 1.52625 1.27875 2.3125 1.9375 C4.88246713 4.14232781 4.88246713 4.14232781 8 5 C8 5.66 8 6.32 8 7 C8.66 7 9.32 7 10 7 C11.62875988 8.98738591 13.10245048 10.95661499 14.5625 13.0625 C14.97435547 13.62388672 15.38621094 14.18527344 15.81054688 14.76367188 C18.67517044 18.86603786 19.63758624 22.00886318 20 27 C19.01 27.33 18.02 27.66 17 28 C16.49210937 27.14277344 15.98421875 26.28554687 15.4609375 25.40234375 C12.07058697 19.74762597 8.70448501 14.32114971 4.25390625 9.421875 C1.57017729 6.37864341 0 4.07041936 0 0 Z " fill="#724963" transform="translate(311,189)"/>
<path d="M0 0 C0.66 0 1.32 0 2 0 C2.21683204 4.6624585 2.41373087 9.32516691 2.59204102 13.98925781 C2.65554626 15.57640171 2.72453429 17.16333596 2.79907227 18.75 C2.90515652 21.02831947 2.99162167 23.3066609 3.07421875 25.5859375 C3.11157639 26.29744965 3.14893402 27.00896179 3.18742371 27.74203491 C3.2487793 29.74365234 3.2487793 29.74365234 3 33 C2.01 33.66 1.02 34.32 0 35 C-0.2165625 34.0409375 -0.2165625 34.0409375 -0.4375 33.0625 C-0.81007181 31.02454854 -0.81007181 31.02454854 -2 30 C-2.25423019 25.73534198 -2.18523163 21.45883273 -2.1875 17.1875 C-2.19974609 15.98544922 -2.21199219 14.78339844 -2.22460938 13.54492188 C-2.22654297 12.38927734 -2.22847656 11.23363281 -2.23046875 10.04296875 C-2.23457764 8.98102295 -2.23868652 7.91907715 -2.24291992 6.82495117 C-2.0018958 4.02204656 -1.44673099 2.38135433 0 0 Z " fill="#4D1736" transform="translate(162,240)"/>
<path d="M0 0 C0.91007812 0.00902344 1.82015625 0.01804687 2.7578125 0.02734375 C3.80582031 0.04474609 3.80582031 0.04474609 4.875 0.0625 C4.875 0.3925 4.875 0.7225 4.875 1.0625 C3.0496875 1.43375 3.0496875 1.43375 1.1875 1.8125 C-2.71557206 2.78134767 -5.20037592 4.2265009 -8.125 7.0625 C-9.72477041 10.26204081 -9.61497712 13.59005346 -9.125 17.0625 C-7.74260705 19.26676487 -7.74260705 19.26676487 -5.125 20.0625 C-0.26048248 20.37633984 4.08324156 20.02085169 8.875 19.0625 C5.47366997 22.5772077 4.12103724 23.95866356 -0.875 24.375 C-5.27135228 24.31904643 -7.75718282 22.94920044 -11.125 20.0625 C-13.42468534 17.13562775 -13.65499194 13.85156984 -13.5859375 10.1640625 C-12.73303882 6.27542275 -10.02676501 3.65604645 -7.125 1.0625 C-4.60024538 -0.19987731 -2.81299534 -0.03606404 0 0 Z " fill="#5D2638" transform="translate(257.125,261.9375)"/>
<path d="M0 0 C0.66 0 1.32 0 2 0 C2 17.16 2 34.32 2 52 C-1.96 51.505 -1.96 51.505 -6 51 C-6 50.67 -6 50.34 -6 50 C-4.02 50 -2.04 50 0 50 C0 33.5 0 17 0 0 Z " fill="#5E1021" transform="translate(262,213)"/>
<path d="M0 0 C1.26467795 2.52935589 0.7249339 3.34190903 0 6 C0 6.99 0 7.98 0 9 C-1.1135803 11.28113516 -2.25994626 13.47790617 -3.5 15.6875 C-3.83386719 16.29400391 -4.16773438 16.90050781 -4.51171875 17.52539062 C-5.335537 19.02003231 -6.16703451 20.51043671 -7 22 C-8.32 22 -9.64 22 -11 22 C-11.73046875 20.40234375 -11.73046875 20.40234375 -12 18 C-10.86083581 15.69517944 -9.71695435 13.69230512 -8.3125 11.5625 C-7.60738281 10.45003906 -6.90226563 9.33757812 -6.17578125 8.19140625 C-4.2325608 5.34111701 -2.19896238 2.65563177 0 0 Z " fill="#775164" transform="translate(179,198)"/>
<path d="M0 0 C2.21244192 3.31866288 2.24755216 4.35722871 2.23046875 8.21875 C2.22853516 9.23324219 2.22660156 10.24773437 2.22460938 11.29296875 C2.21236328 12.35128906 2.20011719 13.40960938 2.1875 14.5 C2.18685547 15.55832031 2.18621094 16.61664063 2.18554688 17.70703125 C2.14053915 25.57838255 2.14053915 25.57838255 1 29 C0.96079185 30.99961564 0.95556653 33.00049364 1 35 C-0.32 35.66 -1.64 36.32 -3 37 C-2.93941406 36.29359375 -2.87882812 35.5871875 -2.81640625 34.859375 C-2.16205296 26.84606389 -1.71995945 18.83878216 -1.39282227 10.80566406 C-1.35600342 9.98163086 -1.31918457 9.15759766 -1.28125 8.30859375 C-1.25095703 7.57439209 -1.22066406 6.84019043 -1.18945312 6.08374023 C-0.99719624 3.96916225 -0.56934452 2.04255229 0 0 Z " fill="#471331" transform="translate(339,240)"/>
<path d="M0 0 C0 0.66 0 1.32 0 2 C0.5775 2.061875 1.155 2.12375 1.75 2.1875 C4.94710041 3.34200848 6.1436532 5.21547979 8 8 C8 11.10551666 7.4606285 12.35261084 6 15 C-1.48291572 7.70159453 -1.48291572 7.70159453 -4 4 C-5.32 4.99 -6.64 5.98 -8 7 C-8.99 5.68 -9.98 4.36 -11 3 C-10.67 2.34 -10.34 1.68 -10 1 C-9.13375 1.309375 -9.13375 1.309375 -8.25 1.625 C-4.87447636 2.18758727 -3.25980896 0 0 0 Z " fill="#E7AEB6" transform="translate(185,303)"/>
<path d="M0 0 C5.76899091 5.76899091 4.9696824 18.5247359 5.1875 26.25 C5.12698591 32.87024123 3.96489153 39.46113689 3 46 C2.67 46 2.34 46 2 46 C1.61936779 43.6739143 1.28730055 41.33944736 1 39 C1.495 38.505 1.495 38.505 2 38 C2.08713831 36.29227642 2.10700007 34.58101351 2.09765625 32.87109375 C2.09443359 31.83662109 2.09121094 30.80214844 2.08789062 29.73632812 C2.07951172 28.64771484 2.07113281 27.55910156 2.0625 26.4375 C2.05798828 25.34501953 2.05347656 24.25253906 2.04882812 23.12695312 C2.03699826 20.41791505 2.02051543 17.70898401 2 15 C1.01 15.99 0.02 16.98 -1 18 C-1.08364563 13.14855325 -0.87033023 8.78681628 0 4 C0 2.68 0 1.36 0 0 Z " fill="#86697D" transform="translate(338,228)"/>
<path d="M0 0 C0.66 0 1.32 0 2 0 C2.625 1.875 2.625 1.875 3 4 C2.34 4.66 1.68 5.32 1 6 C0.35232207 8.57061311 0.35232207 8.57061311 0 11 C-0.99 11 -1.98 11 -3 11 C-3 11.99 -3 12.98 -3 14 C-7.875 12.125 -7.875 12.125 -9 11 C-9.3125 8.6875 -9.3125 8.6875 -9 6 C-6.62293897 2.94377868 -4.79359017 1.65406727 -1 1 C-0.67 0.67 -0.34 0.34 0 0 Z " fill="#E14844" transform="translate(258,267)"/>
<path d="M0 0 C0.33 0.99 0.66 1.98 1 3 C2.32 2.34 3.64 1.68 5 1 C4.36914714 5.59120691 3.19017939 9.70371254 1.625 14.0625 C1.20476562 15.24972656 0.78453125 16.43695313 0.3515625 17.66015625 C-0.86718675 20.67180542 -2.24010592 23.27782465 -4 26 C-5.24546405 23.50907189 -4.7767578 22.58919267 -4 20 C-3.34 20 -2.68 20 -2 20 C-2.7763932 16.9254644 -2.7763932 16.9254644 -5 15 C-3.35 10.05 -1.7 5.1 0 0 Z " fill="#734860" transform="translate(335,274)"/>
<path d="M0 0 C4.08998175 1.80720124 6.66247347 4.19069751 9 8 C9.25 11.8125 9.25 11.8125 9 15 C8.01 15.495 8.01 15.495 7 16 C6.7525 14.7625 6.505 13.525 6.25 12.25 C5.25845937 8.44572166 4.48214702 6.1428597 1 4 C-2.86611961 3.22677608 -6.3792952 3.08877386 -9.8828125 5.05859375 C-12.04664939 6.81997788 -13.74548117 8.49096234 -15 11 C-15.66 11 -16.32 11 -17 11 C-16.41750572 7.86909322 -15.73097563 5.66250016 -13.33203125 3.48828125 C-8.8687671 0.47536212 -5.48961495 -0.82862112 0 0 Z " fill="#542835" transform="translate(234,272)"/>
<path d="M0 0 C0.33 0.66 0.66 1.32 1 2 C-0.28419041 3.67243402 -1.57757185 5.33781447 -2.875 7 C-3.59429687 7.928125 -4.31359375 8.85625 -5.0546875 9.8125 C-5.69664062 10.534375 -6.33859375 11.25625 -7 12 C-7.66 12 -8.32 12 -9 12 C-9 12.66 -9 13.32 -9 14 C-9.66 14 -10.32 14 -11 14 C-11 14.66 -11 15.32 -11 16 C-12.95927063 17.7143618 -14.95880212 19.38405168 -17 21 C-17.66 20.67 -18.32 20.34 -19 20 C-18.505 19.236875 -18.01 18.47375 -17.5 17.6875 C-15.75631692 15.07636249 -15.75631692 15.07636249 -16 12 C-14.46875 10.17578125 -14.46875 10.17578125 -12.5 8.3125 C-11.8503125 7.68988281 -11.200625 7.06726563 -10.53125 6.42578125 C-10.0259375 5.95527344 -9.520625 5.48476563 -9 5 C-8.01 5.99 -7.02 6.98 -6 8 C-5.67 7.01 -5.34 6.02 -5 5 C-4.34 4.01 -3.68 3.02 -3 2 C-2.67 2.33 -2.34 2.66 -2 3 C-1.34 2.01 -0.68 1.02 0 0 Z " fill="#825C6F" transform="translate(325,306)"/>
<path d="M0 0 C2.35953094 2.35953094 2.49141413 3.77895617 3 7 C3.33 5.35 3.66 3.7 4 2 C4.33 2 4.66 2 5 2 C5.36923077 8.52307692 5.36923077 8.52307692 3.5 10.9375 C3.005 11.288125 2.51 11.63875 2 12 C1.67 11.67 1.34 11.34 1 11 C0.21625 11.804375 -0.5675 12.60875 -1.375 13.4375 C-4.45298144 16.44219617 -5.06466966 16.92940903 -9.3125 17.25 C-13.29344778 16.98010524 -15.12918103 16.78382445 -18 14 C-18.43015 11.20402501 -18.23400793 8.85489675 -18 6 C-17.67 6 -17.34 6 -17 6 C-16.67 8.31 -16.34 10.62 -16 13 C-14.56274129 13.16873478 -13.12518162 13.33490737 -11.6875 13.5 C-10.88699219 13.5928125 -10.08648437 13.685625 -9.26171875 13.78125 C-6.88103445 14.04813463 -6.88103445 14.04813463 -4 14 C-3.67 12.68 -3.34 11.36 -3 10 C-2.01 10 -1.02 10 0 10 C0 6.7 0 3.4 0 0 Z " fill="#D04D54" transform="translate(239,280)"/>
<path d="M0 0 C2.5625 1.5 2.5625 1.5 4 3 C3.67 3.66 3.34 4.32 3 5 C2.01 4.67 1.02 4.34 0 4 C0 3.34 0 2.68 0 2 C-3.40080577 2.10407917 -3.40080577 2.10407917 -7 3 C-8.77148372 5.47933197 -8.77148372 5.47933197 -10 8 C-10.99 8 -11.98 8 -13 8 C-13 11.3 -13 14.6 -13 18 C-13.66 18 -14.32 18 -15 18 C-16.89228081 14.21543839 -16.7463327 10.101694 -16 6 C-12.28673383 0.06343025 -6.61902777 -1.34169482 0 0 Z " fill="#C85A5C" transform="translate(235,275)"/>
<path d="M0 0 C0.66 0.33 1.32 0.66 2 1 C-0.8196287 6.11951017 -3.71183446 9.96062818 -8.28515625 13.61328125 C-10.71027576 15.57436878 -12.82941952 17.76364435 -15 20 C-15.33 19.34 -15.66 18.68 -16 18 C-15.22265625 15.8359375 -15.22265625 15.8359375 -14.0625 13.375 C-13.49208984 12.14910156 -13.49208984 12.14910156 -12.91015625 10.8984375 C-12.60980469 10.27195313 -12.30945313 9.64546875 -12 9 C-11.34 9 -10.68 9 -10 9 C-10 8.34 -10 7.68 -10 7 C-9.278125 6.95875 -8.55625 6.9175 -7.8125 6.875 C-3.76725183 5.61647835 -2.50518743 3.36410883 0 0 Z " fill="#6C475C" transform="translate(194,185)"/>
<path d="M0 0 C1.66666667 1.66666667 3.33333333 3.33333333 5 5 C6.0828125 5.928125 6.0828125 5.928125 7.1875 6.875 C9.58616796 9.6872314 10.09669394 12.45129761 11 16 C11.66 16.99 12.32 17.98 13 19 C9.36938333 17.46781315 7.0136227 15.2816856 4.25 12.5 C3.45078125 11.7059375 2.6515625 10.911875 1.828125 10.09375 C0 8 0 8 0 6 C-0.66 6 -1.32 6 -2 6 C-1.49396008 3.83125748 -1.00016187 2.00032373 0 0 Z " fill="#826074" transform="translate(180,306)"/>
<path d="M0 0 C26.08713214 -0.27524524 26.08713214 -0.27524524 31 3 C29.02 3.99 29.02 3.99 27 5 C27.33 5.66 27.66 6.32 28 7 C13.15 6.505 13.15 6.505 -2 6 C-2 5.67 -2 5.34 -2 5 C6.58 5 15.16 5 24 5 C24 4.01 24 3.02 24 2 C22.95199219 2.12568359 22.95199219 2.12568359 21.8828125 2.25390625 C20.97273438 2.35574219 20.06265625 2.45757812 19.125 2.5625 C18.22007812 2.66691406 17.31515625 2.77132812 16.3828125 2.87890625 C14 3 14 3 12 2 C9.9625237 1.77141886 7.91959697 1.58975722 5.875 1.4375 C4.23144531 1.31181641 4.23144531 1.31181641 2.5546875 1.18359375 C1.71164063 1.12300781 0.86859375 1.06242188 0 1 C0 0.67 0 0.34 0 0 Z M9 2 C9.99 2.33 10.98 2.66 12 3 C11.01 3 10.02 3 9 3 C9 2.67 9 2.34 9 2 Z " fill="#A5798D" transform="translate(242,165)"/>
<path d="M0 0 C0 1.32 0 2.64 0 4 C-0.66 4.2475 -1.32 4.495 -2 4.75 C-5.17027187 6.07094661 -8.12664191 7.63782035 -11.1328125 9.29296875 C-13 10 -13 10 -16 9 C-16.99 10.485 -16.99 10.485 -18 12 C-20.625 12.6875 -20.625 12.6875 -23 13 C-19.33044454 9.02406799 -15.64783478 6.31989282 -10.9375 3.6875 C-10.32583984 3.32849609 -9.71417969 2.96949219 -9.08398438 2.59960938 C-5.69969541 0.67879672 -3.98642033 0 0 0 Z " fill="#F8DDDE" transform="translate(218,177)"/>
<path d="M0 0 C0.66 0.99 1.32 1.98 2 3 C2.99 3 3.98 3 5 3 C4.67 5.64 4.34 8.28 4 11 C3.67 9.68 3.34 8.36 3 7 C2.01 7.495 2.01 7.495 1 8 C0.00544091 10.98367726 -0.19559632 13.2004192 -0.31640625 16.32421875 C-0.35830078 17.35224609 -0.40019531 18.38027344 -0.44335938 19.43945312 C-0.48267578 20.51130859 -0.52199219 21.58316406 -0.5625 22.6875 C-0.60568359 23.77095703 -0.64886719 24.85441406 -0.69335938 25.97070312 C-0.79946838 28.64700791 -0.90152361 31.32340526 -1 34 C-1.33 34 -1.66 34 -2 34 C-3.49653387 23.71132966 -4.77091466 9.54182932 0 0 Z " fill="#977889" transform="translate(161,233)"/>
<path d="M0 0 C2.97 0.495 2.97 0.495 6 1 C4.16059646 4.67880708 -0.61342444 6.40039976 -4.3125 8 C-6.50376914 9.29852986 -6.93559283 10.7292647 -8 13 C-8.99 13.66 -9.98 14.32 -11 15 C-11.66 14.34 -12.32 13.68 -13 13 C-7.33593941 4.63042593 -7.33593941 4.63042593 -2 3 C-1.34 2.01 -0.68 1.02 0 0 Z " fill="#F9E2E0" transform="translate(202,185)"/>
<path d="M0 0 C0.99 0.33 1.98 0.66 3 1 C1.02 1.99 1.02 1.99 -1 3 C-1 3.66 -1 4.32 -1 5 C-2.93467942 5.83986084 -4.87285129 6.67168027 -6.8125 7.5 C-8.43091797 8.19609375 -8.43091797 8.19609375 -10.08203125 8.90625 C-13 10 -13 10 -16 10 C-16 9.01 -16 8.02 -16 7 C-14.09118566 5.96455826 -12.17260796 4.94709915 -10.25 3.9375 C-8.64898437 3.08478516 -8.64898437 3.08478516 -7.015625 2.21484375 C-3.97406463 0.98955194 -2.95106435 0.74651393 0 2 C0 1.34 0 0.68 0 0 Z " fill="#471A33" transform="translate(223,170)"/>
<path d="M0 0 C-1.98 0.99 -1.98 0.99 -4 2 C-3.67 2.99 -3.34 3.98 -3 5 C-5.31 5.66 -7.62 6.32 -10 7 C-10 6.34 -10 5.68 -10 5 C-9.01 4.34 -8.02 3.68 -7 3 C-7.66 2.67 -8.32 2.34 -9 2 C-9 2.66 -9 3.32 -9 4 C-10.010625 4.0825 -11.02125 4.165 -12.0625 4.25 C-15.08393275 4.6536732 -17.11148414 5.50802035 -19.6875 7.125 C-23 9 -23 9 -25.20703125 8.6171875 C-25.79871094 8.41351563 -26.39039063 8.20984375 -27 8 C-6.24357568 -2.05287636 -6.24357568 -2.05287636 0 0 Z " fill="#A08192" transform="translate(232,168)"/>
<path d="M0 0 C1.32 0.99 2.64 1.98 4 3 C3.01 4.485 3.01 4.485 2 6 C1.80067906 10.18573976 1.66191912 13.98575735 3 18 C2.01 18 1.02 18 0 18 C-4 12.85714286 -4 12.85714286 -4 9 C-3.34 8.195625 -2.68 7.39125 -2 6.5625 C0.41018057 4.01622296 0.41018057 4.01622296 0 0 Z " fill="#F5D5DC" transform="translate(243,264)"/>
<path d="M0 0 C-3.18832091 1.88496335 -3.71893517 2.06410251 -7.5625 1.1875 C-8.696875 0.795625 -9.83125 0.40375 -11 0 C-11.99 -0.33 -12.98 -0.66 -14 -1 C-14.99 -1.66 -15.98 -2.32 -17 -3 C-17 -3.66 -17 -4.32 -17 -5 C-17.99 -5.33 -18.98 -5.66 -20 -6 C-13.48875839 -8.17041387 -5.92602618 -2.76266701 0 0 Z " fill="#4A1831" transform="translate(222,336)"/>
<path d="M0 0 C0.33 0.66 0.66 1.32 1 2 C-0.0725 2.4125 -1.145 2.825 -2.25 3.25 C-5.52917572 4.6572576 -7.71788913 6.19124816 -10 9 C-10.33 9.99 -10.66 10.98 -11 12 C-11.66 12 -12.32 12 -13 12 C-12.82132624 7.44381905 -12.43997667 5.48090473 -9.3125 2.0625 C-5.76152463 -0.14848467 -4.08787651 -0.48665196 0 0 Z " fill="#C05658" transform="translate(260,264)"/>
<path d="M0 0 C0.33 0.66 0.66 1.32 1 2 C0.01 2 -0.98 2 -2 2 C-2 2.66 -2 3.32 -2 4 C-6.95 4 -11.9 4 -17 4 C-16.67 3.01 -16.34 2.02 -16 1 C-14.27111445 0.83044205 -12.54187557 0.66448486 -10.8125 0.5 C-9.84957031 0.4071875 -8.88664063 0.314375 -7.89453125 0.21875 C-5.24812333 0.01875156 -2.65239135 -0.03879183 0 0 Z " fill="#451532" transform="translate(263,341)"/>
<path d="M0 0 C1.03447266 0.42539063 1.03447266 0.42539063 2.08984375 0.859375 C2.78207031 1.13265625 3.47429687 1.4059375 4.1875 1.6875 C6.02734375 2.609375 6.02734375 2.609375 8.02734375 4.609375 C8.02734375 5.599375 8.02734375 6.589375 8.02734375 7.609375 C3.41880578 6.88929094 -0.64503034 5.29641561 -4.97265625 3.609375 C-4.97265625 2.949375 -4.97265625 2.289375 -4.97265625 1.609375 C-1.97265625 -0.390625 -1.97265625 -0.390625 0 0 Z " fill="#56203B" transform="translate(285.97265625,172.390625)"/>
<path d="M0 0 C0.33 0.99 0.66 1.98 1 3 C1.33 3.33 1.66 3.66 2 4 C2.66 3.67 3.32 3.34 4 3 C4.05406122 4.93719378 4.09282025 6.87481921 4.125 8.8125 C4.14820313 9.89144531 4.17140625 10.97039062 4.1953125 12.08203125 C4 15 4 15 2 18 C1.29994051 15.92085336 0.61537756 13.83648414 -0.0625 11.75 C-0.44535156 10.58984375 -0.82820312 9.4296875 -1.22265625 8.234375 C-1.95346593 5.19361916 -2.17942509 3.83062023 -1 1 C-0.67 0.67 -0.34 0.34 0 0 Z " fill="#774D68" transform="translate(162,269)"/>
<path d="M0 0 C0.66 0.33 1.32 0.66 2 1 C2.375 3.25 2.375 3.25 2 6 C-1 8.3125 -1 8.3125 -4 10 C-3.34 8.35 -2.68 6.7 -2 5 C-2.78375 5.78375 -3.5675 6.5675 -4.375 7.375 C-5.91666667 8.91666667 -7.45833333 10.45833333 -9 12 C-9.66 11.67 -10.32 11.34 -11 11 C-11 10.34 -11 9.68 -11 9 C-10.34 9 -9.68 9 -9 9 C-9 8.34 -9 7.68 -9 7 C-7.03125 5.2734375 -7.03125 5.2734375 -4.5 3.375 C-3.6646875 2.74335938 -2.829375 2.11171875 -1.96875 1.4609375 C-0.99421875 0.73777344 -0.99421875 0.73777344 0 0 Z " fill="#664154" transform="translate(197,181)"/>
<path d="M0 0 C1.98 0 3.96 0 6 0 C6 0.66 6 1.32 6 2 C9.63 2.33 13.26 2.66 17 3 C17.33 4.32 17.66 5.64 18 7 C11.03949747 6.61330541 6.0605925 4.36561591 0 1 C0 0.67 0 0.34 0 0 Z " fill="#775168" transform="translate(206,334)"/>
<path d="M0 0 C10.4 1.4 10.4 1.4 13 4 C12.67 4.66 12.34 5.32 12 6 C12.33 6.99 12.66 7.98 13 9 C7.97290493 7.42903279 3.97133531 4.38006951 0 1 C0 0.67 0 0.34 0 0 Z " fill="#6B4058" transform="translate(193,325)"/>
<path d="M0 0 C2.35953094 2.35953094 2.49141413 3.77895617 3 7 C3.33 5.35 3.66 3.7 4 2 C4.33 2 4.66 2 5 2 C5.36923077 8.52307692 5.36923077 8.52307692 3.5 10.9375 C3.005 11.288125 2.51 11.63875 2 12 C1.67 11.67 1.34 11.34 1 11 C0.01 11.99 -0.98 12.98 -2 14 C-1.34 9.38 -0.68 4.76 0 0 Z " fill="#A54654" transform="translate(239,280)"/>
<path d="M0 0 C-4.87508592 3.90006874 -7.75619821 4.62438018 -14 4 C-14.66 3.34 -15.32 2.68 -16 2 C-14.08654673 1.46748234 -12.1690705 0.94940517 -10.25 0.4375 C-9.18265625 0.14746094 -8.1153125 -0.14257812 -7.015625 -0.44140625 C-4.15664073 -0.97098494 -2.68402617 -0.98370862 0 0 Z " fill="#6C2537" transform="translate(266,282)"/>
<path d="M0 0 C0.99 0 1.98 0 3 0 C3 3.66666667 3 7.33333333 3 11 C1.02 11.99 1.02 11.99 -1 13 C-0.67 8.71 -0.34 4.42 0 0 Z " fill="#4F1B36" transform="translate(337,264)"/>
<path d="M0 0 C0.763125 0.639375 1.52625 1.27875 2.3125 1.9375 C4.88246713 4.14232781 4.88246713 4.14232781 8 5 C8.33 7.64 8.66 10.28 9 13 C5.11329738 9.97700907 2.15078404 7.54054409 0 3 C0 2.01 0 1.02 0 0 Z " fill="#48132C" transform="translate(311,189)"/>
<path d="M0 0 C4.95 0 9.9 0 15 0 C15 0.33 15 0.66 15 1 C14.30132812 1.04898437 13.60265625 1.09796875 12.8828125 1.1484375 C11.97273438 1.22320312 11.06265625 1.29796875 10.125 1.375 C9.22007812 1.44460938 8.31515625 1.51421875 7.3828125 1.5859375 C4.82058097 1.79568132 4.82058097 1.79568132 3 4 C-2.19966951 4.33546255 -4.24698333 4.37650833 -9 2 C-4.545 1.505 -4.545 1.505 0 1 C0 0.67 0 0.34 0 0 Z " fill="#5D2C47" transform="translate(243,341)"/>
<path d="M0 0 C-6.93805182 3.12892533 -13.43781278 3.66569599 -21 4 C-21 3.34 -21 2.68 -21 2 C-12.42857143 0.71428571 -12.42857143 0.71428571 -9 2 C-9 1.34 -9 0.68 -9 0 C-5.5657338 -0.85856655 -3.38317487 -0.97591583 0 0 Z " fill="#826277" transform="translate(282,341)"/>
<path d="M0 0 C0.66 0 1.32 0 2 0 C2.53625 0.639375 3.0725 1.27875 3.625 1.9375 C7.00416058 4.87203419 9.58546572 4.70569771 14 5 C14 4.34 14 3.68 14 3 C14.99 3 15.98 3 17 3 C17 3.66 17 4.32 17 5 C13.29676571 7.46882286 9.30071296 7.70684985 5 7 C2 5.1875 2 5.1875 0 3 C0 2.01 0 1.02 0 0 Z " fill="#C74C53" transform="translate(247,276)"/>
<path d="M0 0 C0.66 0.33 1.32 0.66 2 1 C3.27368421 8.17894737 3.27368421 8.17894737 2 12 C1.34 12 0.68 12 0 12 C-1.19287411 8.12315913 -2 5.08378077 -2 1 C-1.34 0.67 -0.68 0.34 0 0 Z " fill="#4A1732" transform="translate(336,226)"/>
<path d="M0 0 C0.66 0.99 1.32 1.98 2 3 C-3.34570766 8.79118329 -3.34570766 8.79118329 -7 9 C-9.69256394 8.7665407 -12.32367106 8.40144934 -15 8 C-14.67 7.34 -14.34 6.68 -14 6 C-12.948125 6.061875 -11.89625 6.12375 -10.8125 6.1875 C-6.78646977 5.98949851 -5.14376421 5.42518953 -2 3 C-1.34 2.01 -0.68 1.02 0 0 Z " fill="#6B192D" transform="translate(240,290)"/>
<path d="M0 0 C0.66 0 1.32 0 2 0 C2.99 3.96 3.98 7.92 5 12 C3.68 12.33 2.36 12.66 1 13 C-0.10228696 8.59085217 -0.07654536 4.51617599 0 0 Z " fill="#5C223E" transform="translate(165,275)"/>
<path d="M0 0 C2.1875 -0.375 2.1875 -0.375 5 0 C8.76415619 3.42956453 9.89876778 4.74472041 10.3125 9.875 C10.1578125 11.421875 10.1578125 11.421875 10 13 C9.01 13.495 9.01 13.495 8 14 C7.62875 12.14375 7.62875 12.14375 7.25 10.25 C6.31159197 6.45615038 5.0862862 4.50760754 2 2 C1.34 1.34 0.68 0.68 0 0 Z " fill="#5D1628" transform="translate(233,274)"/>
<path d="M0 0 C0.66 0.33 1.32 0.66 2 1 C-3.14148104 9.87116195 -3.14148104 9.87116195 -7 12 C-7.66 12 -8.32 12 -9 12 C-8.75 9.625 -8.75 9.625 -8 7 C-6.1875 6 -6.1875 6 -4 5 C-1.77183014 2.46557594 -1.77183014 2.46557594 0 0 Z " fill="#491F36" transform="translate(194,185)"/>
<path d="M0 0 C3.26008643 3.16952847 6.22237877 6.39937989 9 10 C8.01 10 7.02 10 6 10 C6 9.34 6 8.68 6 8 C5.236875 7.9175 4.47375 7.835 3.6875 7.75 C0.47626739 6.85384206 -0.29374499 5.78388975 -2 3 C-1.34 2.01 -0.68 1.02 0 0 Z " fill="#4F1A35" transform="translate(180,306)"/>
<path d="M0 0 C2.72923388 -0.0270817 5.45819637 -0.04687847 8.1875 -0.0625 C8.95642578 -0.07087891 9.72535156 -0.07925781 10.51757812 -0.08789062 C14.48526789 -0.10491934 18.12571234 0.01395885 22 1 C18.97744334 2.77410934 17.13802803 3.20346075 13.671875 2.7578125 C12.47304687 2.61279297 12.47304687 2.61279297 11.25 2.46484375 C10.425 2.35269531 9.6 2.24054688 8.75 2.125 C7.90953125 2.02058594 7.0690625 1.91617188 6.203125 1.80859375 C4.13402579 1.54995635 2.06679821 1.27642363 0 1 C0 0.67 0 0.34 0 0 Z M9 2 C9.99 2.33 10.98 2.66 12 3 C11.01 3 10.02 3 9 3 C9 2.67 9 2.34 9 2 Z " fill="#8E6A83" transform="translate(242,165)"/>
<path d="M0 0 C4.39158329 1.4638611 4.87947433 3.97831338 7 8 C5.68 8.33 4.36 8.66 3 9 C0.70620251 5.55930376 0 4.27709699 0 0 Z " fill="#4B1A33" transform="translate(173,297)"/>
<path d="M0 0 C1.98 0 3.96 0 6 0 C6.33 0.99 6.66 1.98 7 3 C6.34 3.66 5.68 4.32 5 5 C5.33 5.99 5.66 6.98 6 8 C5.67 8.66 5.34 9.32 5 10 C4.16121545 8.71186658 3.32913217 7.41936744 2.5 6.125 C2.0359375 5.40570313 1.571875 4.68640625 1.09375 3.9453125 C0 2 0 2 0 0 Z " fill="#7C576E" transform="translate(168,294)"/>
<path d="M0 0 C3.96 0 7.92 0 12 0 C12 0.99 12 1.98 12 3 C8.04 3 4.08 3 0 3 C0 2.01 0 1.02 0 0 Z " fill="#481132" transform="translate(254,167)"/>
<path d="M0 0 C0.99 0.33 1.98 0.66 3 1 C0.56838906 5.74164134 0.56838906 5.74164134 -2.0625 6.9375 C-3.0215625 6.9684375 -3.0215625 6.9684375 -4 7 C-4.66 6.34 -5.32 5.68 -6 5 C-1.60546875 0.99609375 -1.60546875 0.99609375 0 0 Z " fill="#4B1D34" transform="translate(307,320)"/>
<path d="M0 0 C6.57142857 4 6.57142857 4 8 8 C6.35 6.68 4.7 5.36 3 4 C3.66 5.98 4.32 7.96 5 10 C2.69 8.35 0.38 6.7 -2 5 C-1.34 4.67 -0.68 4.34 0 4 C0 2.68 0 1.36 0 0 Z " fill="#865E73" transform="translate(309,186)"/>
<path d="M0 0 C2 2 2 2 2.265625 4.171875 C2.23528962 9.17721328 1.97526844 13.30873746 0 18 C-0.33 18 -0.66 18 -1 18 C-1.08364563 13.14855325 -0.87033023 8.78681628 0 4 C0 2.68 0 1.36 0 0 Z " fill="#70425B" transform="translate(338,228)"/>
<path d="M0 0 C0 1.32 0 2.64 0 4 C-0.61875 3.79375 -1.2375 3.5875 -1.875 3.375 C-2.57625 3.25125 -3.2775 3.1275 -4 3 C-4.66 3.66 -5.32 4.32 -6 5 C-7.98821313 5.39764263 -9.98944339 5.73775349 -12 6 C-12 5.34 -12 4.68 -12 4 C-10.75539217 3.32332002 -9.50403104 2.65905281 -8.25 2 C-7.55390625 1.62875 -6.8578125 1.2575 -6.140625 0.875 C-4 0 -4 0 0 0 Z " fill="#ECC9D1" transform="translate(218,177)"/>
<path d="M0 0 C1.65 0.33 3.3 0.66 5 1 C1.59287819 4.97497544 -2.32760855 6.86793788 -7 9 C-5.85900474 5.57701423 -4.99914379 4.85241234 -2 3 C-1.01 3 -0.02 3 1 3 C0.67 2.01 0.34 1.02 0 0 Z " fill="#84647A" transform="translate(301,326)"/>
<path d="M0 0 C2.34955038 3.52432557 2.77861795 5.79374114 3 10 C1.5625 12.4375 1.5625 12.4375 0 14 C-1.33257403 4.58997722 -1.33257403 4.58997722 0 0 Z " fill="#EFBAC3" transform="translate(167,264)"/>
<path d="M0 0 C2.64 0.66 5.28 1.32 8 2 C4.63576723 4.96052484 1.30840713 5.92289822 -3 7 C-3 5.68 -3 4.36 -3 3 C-2.01 2.67 -1.02 2.34 0 2 C0 1.34 0 0.68 0 0 Z " fill="#7E526E" transform="translate(286,333)"/>
<path d="M0 0 C0.99 0.33 1.98 0.66 3 1 C3 1.99 3 2.98 3 4 C2.34 4 1.68 4 1 4 C0.67 5.98 0.34 7.96 0 10 C-0.66 9.34 -1.32 8.68 -2 8 C-1.42307692 1.42307692 -1.42307692 1.42307692 0 0 Z " fill="#4C1A36" transform="translate(330,290)"/>
<path d="M0 0 C0.66 0 1.32 0 2 0 C3.5078125 1.75 3.5078125 1.75 5.125 4 C5.66382813 4.7425 6.20265625 5.485 6.7578125 6.25 C7.16773438 6.8275 7.57765625 7.405 8 8 C7.67 8.66 7.34 9.32 7 10 C6.401875 9.505 5.80375 9.01 5.1875 8.5 C3.02970006 6.71723582 3.02970006 6.71723582 0 7 C0 4.69 0 2.38 0 0 Z " fill="#825D74" transform="translate(319,196)"/>
<path d="M0 0 C5.75 -0.125 5.75 -0.125 8 1 C8 2.32 8 3.64 8 5 C4.62537285 4.45276317 2.91765 3.9451 0 2 C0 1.34 0 0.68 0 0 Z " fill="#4A1534" transform="translate(267,168)"/>
<path d="M0 0 C0.66 0.33 1.32 0.66 2 1 C1.36771484 1.65355469 1.36771484 1.65355469 0.72265625 2.3203125 C-2.76365195 6.11013459 -4.73880963 8.64559734 -5 14 C-5.33 14 -5.66 14 -6 14 C-6.92017937 6.17847534 -6.92017937 6.17847534 -4.6640625 3.2890625 C-3 1.9375 -3 1.9375 0 0 Z " fill="#F6CACD" transform="translate(225,276)"/>
<path d="M0 0 C2.97069541 2.54631035 4.4775751 5.42230149 6 9 C5 11 5 11 3 12 C2.67 10.35 2.34 8.7 2 7 C1.01 7.33 0.02 7.66 -1 8 C-0.67 5.36 -0.34 2.72 0 0 Z " fill="#8B637F" transform="translate(330,211)"/>
<path d="M0 0 C3.57104439 1.87949705 5.54744301 3.17053157 7 7 C5.68 7.33 4.36 7.66 3 8 C0 3.375 0 3.375 0 0 Z " fill="#471833" transform="translate(321,202)"/>
<path d="M0 0 C0 3 0 3 -1.75 5.04296875 C-2.4925 5.75066406 -3.235 6.45835937 -4 7.1875 C-4.7425 7.90292969 -5.485 8.61835938 -6.25 9.35546875 C-6.8275 9.89816406 -7.405 10.44085938 -8 11 C-8.99 10.67 -9.98 10.34 -11 10 C-5.555 5.05 -5.555 5.05 0 0 Z " fill="#EAC5D0" transform="translate(194,190)"/>
<path d="M0 0 C0.66 0 1.32 0 2 0 C2 2.97 2 5.94 2 9 C1.01 9.495 1.01 9.495 0 10 C-0.74926071 6.33694766 -1.2380014 3.57644848 0 0 Z " fill="#46132F" transform="translate(162,240)"/>
<path d="M0 0 C0.66 0.66 1.32 1.32 2 2 C-3.37305699 2.96891192 -3.37305699 2.96891192 -6 3 C-8 1.5625 -8 1.5625 -9 0 C-5.64961743 -0.83759564 -3.2704774 -1.24052591 0 0 Z " fill="#471933" transform="translate(235,169)"/>
<path d="M0 0 C0.91007812 0.00902344 1.82015625 0.01804687 2.7578125 0.02734375 C3.45648438 0.03894531 4.15515625 0.05054688 4.875 0.0625 C4.875 0.3925 4.875 0.7225 4.875 1.0625 C0.55440177 2.16095718 -3.74167943 3.24062739 -8.125 4.0625 C-7.795 3.0725 -7.465 2.0825 -7.125 1.0625 C-4.60024538 -0.19987731 -2.81299534 -0.03606404 0 0 Z " fill="#502034" transform="translate(257.125,261.9375)"/>
<path d="M0 0 C0.97591583 3.38317487 0.85856655 5.5657338 0 9 C-0.66 9 -1.32 9 -2 9 C-2.33 10.32 -2.66 11.64 -3 13 C-4.23593891 9.29218328 -3.5678132 8.32489747 -2.0625 4.8125 C-1.68222656 3.91144531 -1.30195313 3.01039063 -0.91015625 2.08203125 C-0.60980469 1.39496094 -0.30945313 0.70789063 0 0 Z " fill="#A58698" transform="translate(166,218)"/>
<path d="M0 0 C1.26467795 2.52935589 0.7249339 3.34190903 0 6 C0 6.99 0 7.98 0 9 C-1.65 8.67 -3.3 8.34 -5 8 C-3.62845496 5.04590299 -2.01136276 2.55991624 0 0 Z " fill="#896A7B" transform="translate(179,198)"/>
<path d="M0 0 C2.97 1.65 5.94 3.3 9 5 C8.34 5.66 7.68 6.32 7 7 C6.401875 6.67 5.80375 6.34 5.1875 6 C2.94613529 4.79212012 2.94613529 4.79212012 0 5 C0 3.35 0 1.7 0 0 Z " fill="#E2A7B8" transform="translate(292,180)"/>
<path d="M0 0 C6.625 -0.25 6.625 -0.25 10 2 C6.7 2.33 3.4 2.66 0 3 C0 2.01 0 1.02 0 0 Z " fill="#702B3C" transform="translate(227,272)"/>
<path d="M0 0 C5.75 0.75 5.75 0.75 8 3 C8 3.99 8 4.98 8 6 C6.35 5.67 4.7 5.34 3 5 C3 4.01 3 3.02 3 2 C2.01 1.67 1.02 1.34 0 1 C0 0.67 0 0.34 0 0 Z " fill="#4C1D37" transform="translate(286,174)"/>
<path d="M0 0 C0.99 0 1.98 0 3 0 C3.125 3.375 3.125 3.375 3 7 C2.34 7.66 1.68 8.32 1 9 C0.67 6.03 0.34 3.06 0 0 Z " fill="#693A47" transform="translate(216,283)"/>
<path d="M0 0 C1.32 0.33 2.64 0.66 4 1 C0.25 4 0.25 4 -2 4 C-2.66 5.65 -3.32 7.3 -4 9 C-4.33 8.01 -4.66 7.02 -5 6 C-3.59554165 3.7363436 -1.8032087 1.9791315 0 0 Z " fill="#F6C6CE" transform="translate(252,265)"/>
<path d="M0 0 C0.66 0.33 1.32 0.66 2 1 C0.35 2.32 -1.3 3.64 -3 5 C-2.625 3.0625 -2.625 3.0625 -2 1 C-1.34 0.67 -0.68 0.34 0 0 Z M-5 5 C-4.34 5.33 -3.68 5.66 -3 6 C-4.32 7.32 -5.64 8.64 -7 10 C-7.66 9.67 -8.32 9.34 -9 9 C-7.68 7.68 -6.36 6.36 -5 5 Z " fill="#F9E9E5" transform="translate(205,213)"/>
<path d="M0 0 C1.125 3.75 1.125 3.75 0 6 C-1.32 6 -2.64 6 -4 6 C-3.67 4.35 -3.34 2.7 -3 1 C-2.01 0.67 -1.02 0.34 0 0 Z " fill="#492135" transform="translate(177,205)"/>
<path d="M0 0 C0.66 0.33 1.32 0.66 2 1 C-0.97 4.96 -0.97 4.96 -4 9 C-4.99 8.67 -5.98 8.34 -7 8 C-7 7.34 -7 6.68 -7 6 C-6.34 6 -5.68 6 -5 6 C-5 5.34 -5 4.68 -5 4 C-3.37373596 2.61767557 -1.7074998 1.28062485 0 0 Z " fill="#9E8194" transform="translate(193,184)"/>
<path d="M0 0 C1 3 1 3 0.22265625 5.04296875 C-0.16019531 5.75066406 -0.54304688 6.45835937 -0.9375 7.1875 C-1.31777344 7.90292969 -1.69804687 8.61835938 -2.08984375 9.35546875 C-2.54037109 10.16951172 -2.54037109 10.16951172 -3 11 C-3.66 9.68 -4.32 8.36 -5 7 C-4.34 6.67 -3.68 6.34 -3 6 C-1.90833725 4.06669397 -1.90833725 4.06669397 -1 2 C-0.67 1.34 -0.34 0.68 0 0 Z " fill="#E3A4B6" transform="translate(330,286)"/>
<path d="M0 0 C2.91517292 1.07401108 4.77810176 1.77810176 7 4 C5.02 4.66 3.04 5.32 1 6 C0.67 4.02 0.34 2.04 0 0 Z " fill="#F5D4DE" transform="translate(269,235)"/>
<path d="M0 0 C3.26954202 0.56371414 4.82575883 1.49962266 7 4 C6.34 4.66 5.68 5.32 5 6 C3.02 4.68 1.04 3.36 -1 2 C-0.67 1.34 -0.34 0.68 0 0 Z " fill="#713341" transform="translate(263,211)"/>
<path d="M0 0 C9.41002278 -0.3690205 9.41002278 -0.3690205 14 2 C14 2.33 14 2.66 14 3 C8.80790596 3.21192221 4.873261 2.5912689 0 1 C0 0.67 0 0.34 0 0 Z " fill="#F2C5CB" transform="translate(253,171)"/>
<path d="M0 0 C4.29 0 8.58 0 13 0 C12.01 1.485 12.01 1.485 11 3 C10.29875 2.855625 9.5975 2.71125 8.875 2.5625 C5.92443859 1.98521625 2.96729849 1.48304859 0 1 C0 0.67 0 0.34 0 0 Z " fill="#471835" transform="translate(241,166)"/>
<path d="M0 0 C2.64 0.33 5.28 0.66 8 1 C8.33 1.99 8.66 2.98 9 4 C8.67 4.66 8.34 5.32 8 6 C4.63408134 4.55746343 2.48952921 2.66735273 0 0 Z " fill="#8D697D" transform="translate(193,325)"/>
<path d="M0 0 C1.3125 2.0625 1.3125 2.0625 2 4 C0.68 3.67 -0.64 3.34 -2 3 C-2 2.34 -2 1.68 -2 1 C-4.31 1 -6.62 1 -9 1 C-5.69708067 -1.07961587 -3.69218461 -1.36027854 0 0 Z " fill="#CB4D53" transform="translate(237,276)"/>
<path d="M0 0 C1.32 0 2.64 0 4 0 C4.33 1.32 4.66 2.64 5 4 C3.02 4.99 3.02 4.99 1 6 C0.34 4.35 -0.32 2.7 -1 1 C-0.67 0.67 -0.34 0.34 0 0 Z " fill="#694354" transform="translate(203,177)"/>
<path d="M0 0 C0.99 0.66 1.98 1.32 3 2 C1.68 3.32 0.36 4.64 -1 6 C-1.99 5.67 -2.98 5.34 -4 5 C-4 4.34 -4 3.68 -4 3 C-3.01 2.67 -2.02 2.34 -1 2 C-0.67 1.34 -0.34 0.68 0 0 Z " fill="#F5D9D8" transform="translate(221,297)"/>
<path d="M0 0 C0.763125 0.639375 1.52625 1.27875 2.3125 1.9375 C4.88246713 4.14232781 4.88246713 4.14232781 8 5 C8 5.66 8 6.32 8 7 C6.68 7 5.36 7 4 7 C4 6.34 4 5.68 4 5 C2.68 4.34 1.36 3.68 0 3 C0 2.01 0 1.02 0 0 Z " fill="#592F47" transform="translate(311,189)"/>
<path d="M0 0 C2.97 0.495 2.97 0.495 6 1 C5.67 2.32 5.34 3.64 5 5 C4.01 5 3.02 5 2 5 C1.34 3.35 0.68 1.7 0 0 Z " fill="#927486" transform="translate(174,304)"/>
<path d="M0 0 C1.98 1.65 3.96 3.3 6 5 C4.02 5.99 4.02 5.99 2 7 C0 4 0 4 0 0 Z " fill="#631E2C" transform="translate(218,290)"/>
<path d="M0 0 C1.95418308 2.93127462 2.64700993 4.55834679 3 8 C2.34 8.66 1.68 9.32 1 10 C0 9 0 9 -0.09765625 6.93359375 C-0.08605469 6.10988281 -0.07445312 5.28617187 -0.0625 4.4375 C-0.05347656 3.61121094 -0.04445312 2.78492188 -0.03515625 1.93359375 C-0.02355469 1.29550781 -0.01195312 0.65742188 0 0 Z " fill="#F1C0C2" transform="translate(170,274)"/>
<path d="M0 0 C2.475 0.495 2.475 0.495 5 1 C4.67 2.32 4.34 3.64 4 5 C3.34 5 2.68 5 2 5 C1.34 3.35 0.68 1.7 0 0 Z " fill="#501938" transform="translate(326,212)"/>
<path d="M0 0 C-0.639375 0.28875 -1.27875 0.5775 -1.9375 0.875 C-4.15206079 1.82823451 -4.15206079 1.82823451 -5 4 C-6.65 3.67 -8.3 3.34 -10 3 C-7.28464405 0.28464405 -3.67870689 -1.83935344 0 0 Z " fill="#EDCBD1" transform="translate(228,174)"/>
<path d="M0 0 C2.97 0.495 2.97 0.495 6 1 C4.68 1.33 3.36 1.66 2 2 C2 2.66 2 3.32 2 4 C0.68 4 -0.64 4 -2 4 C-2 3.34 -2 2.68 -2 2 C-1.34 2 -0.68 2 0 2 C0 1.34 0 0.68 0 0 Z " fill="#441631" transform="translate(271,339)"/>
<path d="M0 0 C0.66 0 1.32 0 2 0 C2 0.66 2 1.32 2 2 C2.99 2.33 3.98 2.66 5 3 C4.01 3.33 3.02 3.66 2 4 C1.67 4.99 1.34 5.98 1 7 C-0.0625 5.1875 -0.0625 5.1875 -1 3 C-0.67 2.01 -0.34 1.02 0 0 Z " fill="#EFBDC0" transform="translate(192,310)"/>
<path d="M0 0 C0.66 0 1.32 0 2 0 C1.49396008 2.16874252 1.00016187 3.99967627 0 6 C-0.99 5.67 -1.98 5.34 -3 5 C-1.625 2.5 -1.625 2.5 0 0 Z " fill="#4B1731" transform="translate(319,308)"/>
<path d="M0 0 C1.32 0.66 2.64 1.32 4 2 C4 2.66 4 3.32 4 4 C2.68 4.33 1.36 4.66 0 5 C-0.5625 3.0625 -0.5625 3.0625 -1 1 C-0.67 0.67 -0.34 0.34 0 0 Z " fill="#4C1B37" transform="translate(166,283)"/>
<path d="M0 0 C-0.33 1.98 -0.66 3.96 -1 6 C-1.66 6 -2.32 6 -3 6 C-3.33 4.35 -3.66 2.7 -4 1 C-2 0 -2 0 0 0 Z " fill="#521D38" transform="translate(339,232)"/>
<path d="M0 0 C0.33 0.66 0.66 1.32 1 2 C1.99 2 2.98 2 4 2 C3.34 4.31 2.68 6.62 2 9 C1.67 9 1.34 9 1 9 C0.67 6.03 0.34 3.06 0 0 Z " fill="#4C263B" transform="translate(167,218)"/>
<path d="M0 0 C2.34058637 2.12780579 3.70700306 4.11562221 5 7 C4.01 8.485 4.01 8.485 3 10 C2.49596232 8.70990357 1.99690074 7.41786211 1.5 6.125 C1.2215625 5.40570313 0.943125 4.68640625 0.65625 3.9453125 C0 2 0 2 0 0 Z " fill="#E3A4B4" transform="translate(323,209)"/>
<path d="M0 0 C0.99 0.33 1.98 0.66 3 1 C2.34 2.32 1.68 3.64 1 5 C0.01 5 -0.98 5 -2 5 C-1.34 3.35 -0.68 1.7 0 0 Z " fill="#491D31" transform="translate(180,199)"/>
<path d="M0 0 C0.33 0.66 0.66 1.32 1 2 C-1.83430453 5.2542015 -3.68607774 6.5206753 -8 7 C-5.42215154 4.35247996 -3.08351902 2.05567935 0 0 Z " fill="#E6C0CD" transform="translate(203,183)"/>
</svg>
